PathFileType	3	(X/Y/Z)	RCH0000002 BBF 07.c3d
DataRate	CameraRate	NumFrames	NumMarkers	Units	OrigDataRate	OrigDataStartFrame	OrigNumFrames
100.0	100.0	12	23	mm	100.0	267	452
Frame#	Time	T2			T10			MAN			LASI			RASI			RPSI			LPAT			LKNE			LANK			LMED			LHEE			LTOE			RPAT			RKNE			RANK			RMED			RHEE			RTOE			LPSI			RTHI			LTHI			RTIB			LTIB			
		X1	Y1	Z1	X2	Y2	Z2	X3	Y3	Z3	X4	Y4	Z4	X5	Y5	Z5	X6	Y6	Z6	X7	Y7	Z7	X8	Y8	Z8	X9	Y9	Z9	X10	Y10	Z10	X11	Y11	Z11	X12	Y12	Z12	X13	Y13	Z13	X14	Y14	Z14	X15	Y15	Z15	X16	Y16	Z16	X17	Y17	Z17	X18	Y18	Z18	X19	Y19	Z19	X20	Y20	Z20	X21	Y21	Z21	X22	Y22	Z22	X23	Y23	Z23	

267	2.660	-45.64561	-102.22625	984.59322	-24.55664	-95.94144	799.39739	83.66568	-65.87851	964.20934	43.81945	-5.23255	646.06790	89.44342	-174.13777	667.87349	-28.63900	-144.61424	719.89422	69.39915	-38.35176	370.17334	5.45552	7.20146	340.25602	-171.62703	-0.87885	139.30455	-147.32630	-67.68112	140.60844	-178.57480	-48.64175	178.83682	-129.41898	-24.25147	103.24031	73.84794	-126.50962	383.04046	41.50902	-190.55225	351.57637	-30.93140	-214.81709	87.43133	-56.69257	-150.22165	99.64252	-80.62430	-196.62086	123.50733	1.42693	-168.54255	74.62027	-46.95506	-77.00240	709.43129	81.29928	-253.87539	459.56893	-11.18478	71.24352	466.75369	23.50653	-265.27011	240.51337	-79.00498	64.30434	263.41774	
268	2.670	-35.53310	-100.87166	988.13321	-14.65534	-95.74942	802.71327	93.66798	-65.08819	967.25850	55.37093	-6.06065	649.26743	99.56619	-175.32813	671.20595	-18.10647	-144.54400	723.15241	89.55895	-37.26779	376.48609	25.52289	6.80556	344.57625	-145.90639	-5.11620	138.81388	-119.41338	-71.41925	140.26065	-152.74157	-53.70324	177.53725	-101.40410	-26.86657	104.28675	74.58890	-129.43552	384.63605	41.79678	-193.62077	354.15183	-29.42893	-214.91720	88.92645	-54.83386	-150.40094	101.48013	-79.16673	-196.76973	125.15142	2.93245	-168.62000	75.40939	-35.99910	-76.88791	712.54128	85.58004	-256.06764	461.26083	3.81323	70.88344	470.26424	23.15973	-267.49075	241.99168	-58.72148	61.93043	266.02151	
269	2.680	-25.33941	-99.71385	991.30706	-4.97405	-95.55667	805.59436	103.70622	-64.40220	969.76014	66.85677	-6.76746	652.10090	109.34122	-176.46168	674.05431	-7.95359	-144.21488	725.76356	109.74075	-36.36027	382.72070	45.97859	6.43184	348.68744	-119.14955	-8.91248	137.82419	-90.96260	-74.79792	139.74631	-126.23019	-58.08636	175.89869	-72.55619	-29.42246	105.04467	75.68483	-132.19943	386.05749	42.35225	-196.43651	356.52159	-27.88407	-214.97053	90.39937	-52.90371	-150.51445	103.27349	-77.59064	-196.80748	126.79734	4.49694	-168.67700	76.15240	-25.30852	-76.47893	715.01222	89.65103	-258.10920	462.73536	19.26660	70.70104	473.31872	23.00683	-269.53157	243.41081	-37.41061	59.82430	267.99325	
270	2.690	-15.05657	-98.75610	994.01277	4.51221	-95.30788	807.95042	113.79830	-63.83180	971.63236	78.30092	-7.38500	654.44371	118.75608	-177.55904	676.38378	1.81344	-143.60082	727.67661	129.89039	-35.78739	388.74874	66.83339	6.02159	352.48890	-91.37102	-12.10382	136.36564	-62.07132	-77.69025	139.05515	-99.10164	-61.62281	173.92115	-42.94651	-31.80460	105.51854	77.22536	-134.80747	387.23472	43.24795	-198.99991	358.62503	-26.32056	-215.02785	91.80245	-50.94390	-150.61864	104.99331	-75.91304	-196.81041	128.41805	6.08199	-168.75126	76.82322	-14.87551	-75.74964	716.74869	93.55441	-260.01493	463.96967	35.27939	70.64536	475.83718	23.12811	-271.40008	244.71323	-14.98585	58.04839	269.31586	
271	2.700	-4.68278	-97.98061	996.16849	13.83502	-94.95071	809.71359	123.95865	-63.37797	972.81845	89.73154	-7.95099	656.20051	127.81266	-178.64194	678.17917	11.20923	-142.69314	728.86896	149.93386	-35.67566	394.46345	88.05170	5.52489	355.91350	-62.60550	-14.56374	134.47310	-32.81042	-79.99587	138.15962	-71.41425	-64.20176	171.58814	-12.63829	-33.90017	105.71835	79.26152	-137.25611	388.11234	44.52952	-201.31190	360.41711	-24.77549	-215.11874	93.09363	-48.99684	-150.74695	106.61005	-74.16734	-196.82588	129.98577	7.64438	-168.86633	77.39885	-4.67473	-74.69556	717.69285	97.33636	-261.79504	464.94682	51.90445	70.66084	477.78924	23.56352	-273.09886	245.85146	8.56271	56.64481	270.01748	
272	2.710	5.77851	-97.35143	997.71414	23.03392	-94.43992	810.83930	134.19856	-63.03204	973.28864	101.18141	-8.50462	657.30766	136.53089	-179.73002	679.44265	20.27202	-141.50023	729.34552	169.78111	-36.11024	399.77647	109.55182	4.90308	358.92212	-32.91498	-16.21449	132.18478	-3.23247	-81.64954	137.02022	-43.22648	-65.77702	168.87264	18.30222	-35.61095	105.65728	81.80856	-139.53279	388.65260	46.21768	-203.37230	361.86982	-23.29868	-215.24751	94.24176	-47.10340	-150.90492	108.09801	-72.40117	-196.86450	131.47670	9.13790	-169.02895	77.86230	5.33800	-73.33275	717.82525	101.04694	-263.45374	465.65450	69.13927	70.69036	479.18639	24.30979	-274.62373	246.79171	33.16572	55.62919	270.15866	
273	2.720	16.32014	-96.81878	998.61195	32.15725	-93.74068	811.30574	144.52669	-62.77678	973.04023	112.68796	-9.08231	657.73322	144.95116	-180.83825	680.19060	29.06433	-140.04570	729.13592	189.33218	-37.13065	404.61308	131.21144	4.12964	361.49524	-2.39588	-17.03316	129.54093	26.61530	-82.62666	135.59262	-14.60341	-66.36741	165.74527	49.79256	-36.86503	105.34917	84.85309	-141.62020	388.83640	48.31265	-205.18051	362.97248	-21.94743	-215.39529	95.23003	-45.29954	-151.07209	109.43910	-70.67018	-196.90171	132.87502	10.51757	-169.23024	78.20463	15.22515	-71.69488	717.16283	104.73953	-264.99010	466.08483	86.92770	70.67854	480.06967	25.32536	-275.96509	247.51626	58.67899	54.98838	269.81758	
274	2.730	26.93298	-96.32403	998.84572	41.26219	-92.83106	811.11238	154.94991	-62.58798	972.09627	124.29270	-9.71407	657.47473	153.13504	-181.97517	680.44990	37.67136	-138.36527	728.29033	208.48503	-38.73179	408.90721	152.87732	3.18991	363.62320	28.81405	-17.05198	126.58270	56.67436	-82.94496	133.83507	14.37350	-66.05080	162.18293	81.72038	-37.62566	104.80571	88.36327	-143.50235	388.66214	50.80092	-206.73789	363.73069	-20.77736	-215.52752	96.05729	-43.61225	-151.21006	110.62546	-69.02883	-196.88779	134.17542	11.74550	-169.45032	78.42572	25.06511	-69.82891	715.75442	108.47035	-266.40065	466.23498	105.16687	70.57492	480.49501	26.54266	-277.11165	248.02416	84.89398	54.68229	269.07553	
275	2.740	37.60788	-95.80507	998.41937	50.41398	-91.70359	810.27772	165.47409	-62.43621	970.50303	136.04003	-10.42084	656.55547	161.16419	-183.14222	680.25397	46.19723	-136.50324	726.87420	227.14427	-40.86973	412.59733	174.37820	2.07970	365.29722	60.52924	-16.35336	123.35095	86.85658	-82.66237	131.71499	43.59408	-64.95313	158.17680	113.93043	-37.89620	104.03395	92.30077	-145.17073	388.14262	53.66364	-208.05043	364.16351	-19.83111	-215.60486	96.73688	-42.05513	-151.27441	111.66052	-67.51951	-196.76379	135.38397	12.79729	-169.66500	78.53340	34.94811	-67.79001	713.67441	112.29838	-267.68252	466.10781	123.71838	70.33679	480.51878	27.88583	-278.05550	248.33012	111.55263	54.64879	268.00455	
276	2.750	48.33745	-95.20131	997.35478	59.68422	-90.36590	808.83672	176.10488	-62.28885	968.32657	147.97539	-11.21294	655.02001	169.13750	-184.33413	679.63895	54.75936	-134.50908	724.96246	245.22947	-43.47093	415.62414	195.53917	0.80349	366.50274	92.51097	-15.06050	119.88517	117.02671	-81.87135	129.21391	72.90654	-63.23418	153.73829	146.21416	-37.72036	103.03447	96.63257	-146.62855	387.30049	56.88573	-209.13080	364.29916	-19.12708	-215.59488	97.29362	-40.62427	-151.22767	112.55846	-66.16188	-196.47918	136.51722	13.66767	-169.85287	78.54125	44.97075	-65.63674	711.01554	116.28577	-268.83613	465.71194	142.42254	69.93151	480.18594	29.29094	-278.79666	248.46140	138.36467	54.81071	266.65883	
277	2.760	59.11750	-94.45804	995.68940	69.14836	-88.84066	806.83800	186.84834	-62.11209	965.64859	160.14274	-12.08980	652.92963	177.16669	-185.54017	678.64016	63.48153	-132.43469	722.63397	262.68191	-46.44302	417.93071	216.19583	-0.62760	367.21646	124.46438	-13.32485	116.22258	146.98859	-80.69023	126.33017	102.10648	-61.07196	148.90228	178.30336	-37.17764	101.80070	101.34120	-147.89212	386.16293	60.46462	-209.99882	364.16962	-18.65040	-215.48167	97.75943	-39.29505	-151.05016	113.34228	-64.94431	-196.00706	137.60006	14.37421	-170.00111	78.46534	55.22968	-63.42699	707.88170	120.49899	-269.86645	465.06062	161.11394	69.33819	479.52282	30.72527	-279.34610	248.45304	165.02540	55.08367	265.07074	
278	2.770	69.94806	-93.52995	993.47370	78.88244	-87.16462	804.34136	197.71125	-61.87295	962.56209	172.58140	-13.04061	650.35837	185.37058	-186.74580	677.28939	72.48633	-130.33263	719.96672	279.46854	-49.68548	419.46512	236.20621	-2.19730	367.40755	156.03906	-11.31182	112.39772	176.47793	-79.25234	123.07963	130.93034	-58.64727	143.72741	209.86987	-36.37432	100.32001	106.43210	-148.98897	384.75623	64.41740	-210.67995	363.80481	-18.34799	-215.27116	98.16856	-38.02049	-150.74639	114.04088	-63.81864	-195.35341	138.66255	14.95839	-170.10871	78.32072	65.81499	-61.21549	704.38160	125.01007	-270.78269	464.16951	179.63666	68.54876	478.53576	32.20217	-279.72607	248.34189	191.23183	55.38381	263.25183	
